<?xml version="1.0" standalone="no"?>
<!DOCTYPE svg PUBLIC "-//W3C//DTD SVG 1.1//EN" "http://www.w3.org/Graphics/SVG/1.1/DTD/svg11.dtd" >
<svg xmlns="http://www.w3.org/2000/svg">
<metadata></metadata>
<defs>
<font id="lyfeiconsregular" horiz-adv-x="749" >
<font-face units-per-em="1000" ascent="800" descent="-200" />
<missing-glyph horiz-adv-x="500" />
<glyph horiz-adv-x="1000" />
<glyph horiz-adv-x="1000" />
<glyph unicode="&#xd;" horiz-adv-x="500" />
<glyph unicode="&#x2000;" horiz-adv-x="400" />
<glyph unicode="&#x2001;" horiz-adv-x="800" />
<glyph unicode="&#x2002;" horiz-adv-x="400" />
<glyph unicode="&#x2003;" horiz-adv-x="800" />
<glyph unicode="&#x2004;" horiz-adv-x="266" />
<glyph unicode="&#x2005;" horiz-adv-x="200" />
<glyph unicode="&#x2006;" horiz-adv-x="133" />
<glyph unicode="&#x2007;" horiz-adv-x="133" />
<glyph unicode="&#x2008;" horiz-adv-x="100" />
<glyph unicode="&#x2009;" horiz-adv-x="160" />
<glyph unicode="&#x200a;" horiz-adv-x="44" />
<glyph unicode="&#x202f;" horiz-adv-x="160" />
<glyph unicode="&#x205f;" horiz-adv-x="200" />
<glyph unicode="&#xe000;" horiz-adv-x="500" d="M0 0v0v0v0v0z" />
<glyph unicode="&#xe001;" horiz-adv-x="671" d="M671 397v-184h-243v-244h-184v244h-244v184h244v243h184v-243h243v0z" />
<glyph unicode="&#xe002;" horiz-adv-x="671" d="M671 213h-671v184h671v-184z" />
<glyph unicode="&#xe003;" horiz-adv-x="879" d="M584 656l166 -166l-458 -459l-167 167l459 458v0zM709 781l166 -166l-62 -63l-167 167l63 62v0zM0 -94l63 229l167 -166l-230 -63v0z" />
<glyph unicode="&#xe004;" horiz-adv-x="768" d="M434 -50h-246l-188 187l457 458l311 -311zM768 -132h-766v32h766v-32v0z" />
<glyph unicode="&#xe005;" horiz-adv-x="880" d="M321 -50l-321 321l129 129l192 -192l430 429l129 -128z" />
<glyph unicode="&#xe006;" horiz-adv-x="673" d="M461 282l212 -211l-125 -125l-212 212l-211 -212l-125 125l212 211l-212 212l125 125l211 -212l212 212l125 -125z" />
<glyph unicode="&#xe007;" horiz-adv-x="1012" d="M326 294q0 38 14 71t39 58t57.5 39t70.5 14q37 0 70 -14t57.5 -39t38.5 -58t14 -71q0 -37 -14 -70t-38.5 -57.5t-57.5 -38.5t-70 -14q-38 0 -70.5 14t-57.5 38.5t-39 57.5t-14 70zM0 310q46 66 102.5 125.5t121 103.5t136 70t147.5 26t147 -26t135.5 -70t121 -103.5 t101.5 -125.5q-45 -66 -101.5 -125.5t-121 -104t-135.5 -70.5t-147 -26t-147.5 26t-136 70.5t-121 104t-102.5 125.5zM71 311q79 -136 191.5 -206t244.5 -70q65 0 126.5 22t117 59.5t104 88t88.5 106.5q-40 57 -88.5 98t-104 68t-117 39.5t-126.5 12.5q-131 0 -244 -52 t-192 -166z" />
<glyph unicode="&#xe008;" horiz-adv-x="682" d="M478 408v-478h68v478h-68zM35 528h613v-701h-613v701zM273 442v-546h69h67v546h-67h-69zM136 408v-478h69v478h-69zM0 724h239v68h205v-68h238v-102h-682v102z" />
<glyph unicode="&#xe009;" horiz-adv-x="920" d="M760 252q-5 -23 -13.5 -42.5t-19.5 -38.5l87 -137q-14 -16 -29 -30.5t-31 -28.5l-136 86q-19 -11 -39 -19t-42 -13l-35 -159q-11 -1 -21.5 -1h-21.5h-20.5t-21.5 1l-34 159q-23 5 -42.5 13t-38.5 19l-137 -86q-32 27 -59 59l86 137q-11 19 -19.5 38.5t-13.5 42.5l-158 34 q-1 11 -1 21.5v20.5v21.5t1 21.5l158 35q5 22 13.5 42t19.5 39l-86 136q14 16 28.5 31t30.5 29l137 -87q19 11 38.5 19.5t42.5 13.5l34 158q11 1 21.5 1.5t20.5 0.5q11 0 21.5 -0.5t21.5 -1.5l35 -158q22 -5 42 -13.5t39 -19.5l136 87q32 -28 60 -60l-87 -136 q11 -19 19.5 -39t13.5 -42l158 -35q1 -11 1.5 -21.5t0.5 -21.5q0 -10 -0.5 -20.5t-1.5 -21.5zM459 134q40 0 76 15.5t62 41.5t41.5 61.5t15.5 75.5t-15.5 76t-41.5 62t-62 41.5t-76 15.5t-75.5 -15.5t-61.5 -41.5t-41.5 -62t-15.5 -76t15.5 -75.5t41.5 -61.5t61.5 -41.5 t75.5 -15.5z" />
<glyph unicode="&#xe00a;" horiz-adv-x="750" d="M750 538h-750v147h750v-147v0zM750 231h-750v145h750v-145v0zM750 -78h-750v146h750v-146v0z" />
<glyph unicode="&#xe00b;" horiz-adv-x="1136" d="M229 352v-126h-84v126h84zM229 126v-126h-84v126h84zM690 578v-126h-83v126h83zM380 352v-126h-83v126h83zM380 126v-126h-83v126h83zM836 578v-126h-84v126h84zM535 352v-126h-83v126h83zM535 126v-126h-83v126h83zM836 352v-126h-84v126h84zM836 126v-126h-84v126h84z M993 578v-126h-83v126h83zM690 352v-126h-83v126h83zM690 126v-126h-83v126h83zM993 352v-126h-83v126h83zM993 126v-126h-83v126h83zM0 800h1137v-946h-1137v946zM1078 -89v750h-1021v-750h1021z" />
<glyph unicode="&#xe00c;" horiz-adv-x="774" d="M0 438l173 300l174 -300h-347zM389 -13q-6 0 -11.5 -0.5t-10.5 -0.5q-6 0 -11 0.5t-10 0.5l-1 -125q5 -1 10.5 -1.5t11.5 -0.5q10 0 20 0.5t20 1.5zM298 -5q-17 5 -31.5 10t-28.5 13l-52 -115q22 -11 44 -19t45 -13zM367 676q-58 0 -115 -17l66 -114q12 2 24 3.5t25 1.5 q58 0 109 -22t89.5 -60.5t60.5 -90t22 -109.5q0 -51 -17 -96.5t-47 -82t-71 -62t-89 -35.5l34 -121q68 16 126 52.5t100 89t66 118t24 137.5q0 84 -32 158.5t-87 130t-129.5 87.5t-158.5 32z" />
<glyph unicode="&#xe00d;" horiz-adv-x="915" d="M457 750q95 0 178.5 -36t145.5 -98t98 -145.5t36 -178.5t-36 -178t-98 -145t-145.5 -98t-178.5 -36t-178 36t-145 98t-98 145t-36 178t36 178.5t98 145.5t145 98t178 36zM197 285l71 73l74 -73l42 44l-72 72l72 73l-43 43l-73 -72l-71 72l-44 -43l71 -73l-71 -72zM695 18 q15 -2 8 8.5t-27 26.5t-48.5 35.5t-58 36.5t-55 28.5t-38.5 11.5q-14 0 -39 -12t-54 -30t-57.5 -38.5t-48 -36.5t-27 -25.5t5.5 -4.5q52 7 92.5 11.5t74 6.5t63 2t60.5 -2.5t67 -7t82 -10.5zM691 401l71 73l-44 43l-71 -72l-74 72l-42 -43l72 -73l-72 -72l42 -44l74 73 l71 -73l44 44z" />
<glyph unicode="&#xe00e;" horiz-adv-x="915" d="M459 748q94 0 177 -36t145 -98t98 -145t36 -177q0 -95 -36 -178.5t-98 -146t-145 -98.5t-177 -36q-95 0 -178.5 36t-146 98.5t-98.5 146t-36 178.5q0 94 36 177t98.5 145t146 98t178.5 36zM736 90q15 -1 5.5 4t-33.5 13t-58.5 17t-68.5 17t-62.5 14t-42.5 7 q-59 3 -102 -7.5t-71.5 -28.5t-44 -39t-20 -38.5t0.5 -27.5t18 -5q52 7 83 16.5t54 19t45 18t58 14.5t92 8t147 -2zM690 400l74 74l-46 43l-71 -73l-70 73l-45 -43l72 -74l-72 -73l45 -45l70 74l73 -74l44 45zM189 400q0 -35 24.5 -58.5t58.5 -23.5q33 0 57.5 23.5 t24.5 58.5t-24.5 58.5t-57.5 23.5q-34 0 -58.5 -23.5t-24.5 -58.5z" />
<glyph unicode="&#xe00f;" horiz-adv-x="915" d="M457 750q95 0 178.5 -36t145.5 -98t98 -145.5t36 -178.5t-36 -178t-98 -145t-145.5 -98t-178.5 -36t-178 36t-145 98t-98 145t-36 178t36 178.5t98 145.5t145 98t178 36zM188 401q0 -34 24 -57.5t59 -23.5t58.5 23.5t23.5 57.5q0 35 -23.5 59t-58.5 24t-59 -24t-24 -59z M462 -47q31 1 64.5 11t64.5 25t57.5 33t42.5 33.5t19 26.5t-12 13q-53 7 -94 12t-75 8t-65 3t-64.5 -2t-73.5 -6.5t-92 -11.5q-16 -1 -13 -12t19 -27.5t42 -35.5t56.5 -34.5t62.5 -26t61 -9.5zM647 320q35 0 59 23.5t24 57.5q0 35 -24 59t-59 24q-17 0 -32 -6.5t-26.5 -17.5 t-18 -26t-6.5 -33q0 -34 24.5 -57.5t58.5 -23.5z" />
<glyph unicode="&#xe010;" horiz-adv-x="715" d="M129 535v-65h99v65h98v131v130l226 -98l-163 -58v-105h98v-65h99v65h129v-162h-98v-293h98v-130h-260v261q0 20 -10 38t-25 31t-32 20.5t-31 7.5q-13 0 -30 -7.5t-32 -20.5t-25 -31t-10 -38v-261h-260v130h98v293h-98v162h129z" />
<glyph unicode="&#xe011;" horiz-adv-x="752" d="M189 598q0 39 14.5 73t40 59.5t60 40t73.5 14.5t73 -14.5t59.5 -40t40 -59.5t14.5 -73t-14.5 -73.5t-40 -60t-59.5 -40t-73 -14.5t-73.5 14.5t-60 40t-40 60t-14.5 73.5zM2 473l75 -500h600l75 500h-123q-12 -42 -36.5 -77.5t-57.5 -61t-73 -39.5t-85 -14t-85 14 t-73 39.5t-57.5 61t-36.5 77.5h-123z" />
<glyph unicode="&#xe012;" horiz-adv-x="400" d="M0 100v400h400v-400h-400z" />
<glyph unicode="&#xe013;" horiz-adv-x="466" d="M466 300q0 -48 -18.5 -90.5t-50 -74t-74 -50t-90.5 -18.5t-90.5 18.5t-74 50t-50 74t-18.5 90.5t18.5 90.5t50 74t74 50t90.5 18.5t90.5 -18.5t74 -50t50 -74t18.5 -90.5z" />
<glyph unicode="&#xe014;" horiz-adv-x="483" d="M0 143l242 418l241 -418h-483v0z" />
<glyph unicode="&#xe015;" horiz-adv-x="483" d="M483 561l-241 -418l-242 418h483z" />
<glyph unicode="&#xe016;" horiz-adv-x="417" d="M0 555l417 -241l-417 -241v482z" />
<glyph unicode="&#xe017;" horiz-adv-x="417" d="M417 73l-417 241l417 241v-482z" />
<glyph unicode="&#xe018;" horiz-adv-x="700" d="M0 649h301v-301h-301v301zM398 649h301v-301h-301v301zM0 252h301v-301h-301v301zM398 252h301v-301h-301v301z" />
<glyph unicode="&#xe019;" horiz-adv-x="1000" d="M300 750h700v-200h-700v200zM300 450h700v-200h-700v200zM300 150h700v-200h-700v200zM0 550v200h200v-200h-200zM0 250v200h200v-200h-200zM0 -50v200h200v-200h-200z" />
<glyph unicode="&#xe01a;" horiz-adv-x="698" d="M347 609q24 -24 38.5 -54t18.5 -62t-1.5 -64t-21.5 -61l317 -317l-79 -79l-317 317q-29 -16 -61 -22t-64 -2t-62 18.5t-55 39.5q-30 30 -44.5 67t-14.5 76t14.5 76t44.5 67t67 44.5t76 14.5t76.5 -14.5t67.5 -44.5zM310 359q22 22 33 50t11 57t-11 57t-33 50t-50 33 t-56.5 11t-56.5 -11t-50 -33t-33 -50t-11 -57t11 -57t33 -50t50 -33t56.5 -11t56.5 11t50 33z" />
<glyph unicode="&#xe01b;" horiz-adv-x="634" d="M553 417l-72 71l-241 -241l-108 108l-72 -72l180 -180zM634 317q0 -66 -25 -123.5t-68 -100.5t-100.5 -68t-123.5 -25t-123.5 25t-100.5 68t-68 100.5t-25 123.5t25 123.5t68 100.5t100.5 68t123.5 25t123.5 -25t100.5 -68t68 -100.5t25 -123.5z" />
<glyph unicode="&#xe01c;" horiz-adv-x="636" d="M634 317q0 -66 -25 -123.5t-68 -100.5t-100.5 -68t-123.5 -25t-123.5 25t-100.5 68t-68 100.5t-25 123.5t25 123.5t68 100.5t100.5 68t123.5 25t123.5 -25t100.5 -68t68 -100.5t25 -123.5zM520 429l-74 74l-127 -127l-125 127l-76 -74l127 -127l-127 -125l76 -76l125 127 l127 -127l74 76l-127 125z" />
<glyph unicode="&#xe01d;" horiz-adv-x="483" d="M854 -30h-852l426 737zM428 553l-294 -531h588zM469 216h-75l-21 219h116zM431 58q-22 0 -37 15t-15 37t15 37.5t37 15.5q21 0 37 -15.5t16 -37.5t-16 -37t-37 -15z" />
<glyph unicode="&#xe01e;" horiz-adv-x="643" d="M323 634q66 0 124.5 -25.5t101.5 -68.5t68.5 -101.5t25.5 -124.5t-25.5 -125.5t-68.5 -103t-101.5 -69t-124.5 -25.5t-125.5 25.5t-103 69t-69 103t-25.5 125.5t25.5 124.5t69 101.5t103 68.5t125.5 25.5zM323 76q49 0 91.5 18.5t74.5 51t50.5 76t18.5 92.5 q0 48 -18.5 90.5t-50.5 75t-74.5 51t-91.5 18.5t-92.5 -18.5t-76 -51t-51 -75t-18.5 -90.5q0 -49 18.5 -92.5t51 -76t76 -51t92.5 -18.5zM359 313l-5 -63h-78l-7 91q26 5 38 15t12 22q0 11 -7.5 18.5t-27.5 7.5q-12 0 -25 -4t-19 -7l-25 61q16 8 39.5 14t51.5 6 q58 0 90 -22.5t32 -59.5q0 -18 -7 -31.5t-17 -22.5t-22.5 -15.5t-22.5 -9.5zM315 120q-19 0 -32.5 13.5t-13.5 33.5q0 19 13.5 33t32.5 14q20 0 33 -14t13 -33q0 -20 -13 -33.5t-33 -13.5z" />
<glyph unicode="&#xe01f;" horiz-adv-x="945" d="M473 788l146 -297l326 -46l-236 -231l56 -326l-292 154l-292 -154l55 326l-236 231l326 46l147 297v0z" />
<glyph unicode="&#xe020;" horiz-adv-x="800" d="M365 131v473h-145v145h362v-145h-145v-473h-72zM256 676h290v36h-290v-36zM1 -160v219h800v-219h-800zM220 168l-74 -73h-145l219 181h81v-108h-81zM501 276h81l219 -181h-145l-74 73h-81v108z" />
<glyph unicode="&#xe021;" horiz-adv-x="862" d="M353 506q0 57 6.5 107t17 87t24.5 58.5t30 21.5t30 -21.5t24.5 -58.5t16.5 -87t6 -107v-392h-155v392zM588 36v548q17 -108 38 -174t44 -109.5t47 -74.5t49 -69t49 -93t47 -146q-2 0 -26.5 0.5t-59.5 0.5t-75.5 -0.5t-74.5 -0.5h-77h-235h-78h-75.5h-75.5h-59.5h-25.5 q23 91 47.5 146t49 93t49 69t47 74.5t43 109.5t38.5 174v-548h314zM274 -121h314v-39h-314v39zM392 -160h78v-40h-78v40z" />
<glyph unicode="&#xe022;" horiz-adv-x="1030" d="M1030 -55h-653v801zM445 49h430l-430 527v-527zM0 644h306v-82h-220v-452h220v-82h-306v616zM624 562l-76 82h423v-499l-89 111v306h-258z" />
<glyph unicode="&#xe023;" d="M194 636v-228l95 -135l-94 -104l-131 174v293h130zM749 539h-66v-228l-228 -293v-164h-163v196l261 325v164h-65l131 227z" />
<glyph unicode="&#xe024;" d="M749 539h-66v-196l-228 -293v-196h-163v196l-228 293v196h-64l130 227l130 -227h-65v-131l179 -224l179 224v131h-65l131 227l130 -227v0z" />
<glyph unicode="&#xe025;" horiz-adv-x="648" d="M648 310l-648 -393v784l648 -391v0z" />
<glyph unicode="&#xe026;" horiz-adv-x="750" d="M0 679h94v-719h-94v719v0zM656 679h94v-719h-94v719v0zM312 741h125v-844h-125v844v0zM187 585h32v-219h-32v219v0zM187 272h32v-218h-32v218v0zM531 679h31v-157h-31v157v0zM531 397h31v-156h-31v156v0zM531 116h31v-156h-31v156v0z" />
<glyph unicode="&#xe027;" horiz-adv-x="996" d="M324 700q52 35 112 54t127 19q90 0 169 -34.5t137.5 -94t92.5 -138.5t34 -168q0 -91 -34 -170.5t-92.5 -139t-137.5 -94t-169 -34.5q-81 0 -152.5 28t-128 77t-95 115.5t-51.5 144.5h-136l237 317l209 -317h-153q12 -46 37.5 -84.5t61 -66.5t79.5 -43.5t92 -15.5 q58 0 109 22t88.5 60.5t59.5 90t22 110.5q0 58 -22 109t-59.5 89t-88.5 60t-109 22q-87 0 -153 -46z" />
<glyph unicode="&#xe028;" horiz-adv-x="855" d="M0 328q0 88 33.5 166t91.5 136t136 91.5t166 33.5t166 -33.5t136.5 -91.5t92 -136t33.5 -166q0 -89 -33.5 -166.5t-92 -136t-136.5 -92t-166 -33.5t-166 33.5t-136 92t-91.5 136t-33.5 166.5zM78 328q0 -81 27.5 -151.5t75 -123.5t111 -83.5t135.5 -30.5v778 q-72 0 -135.5 -30.5t-111 -83.5t-75 -123.5t-27.5 -151.5z" />
<glyph unicode="&#xe029;" horiz-adv-x="855" d="M855 328q0 -89 -33.5 -166.5t-91.5 -136t-136 -92t-166 -33.5q-89 0 -166.5 33.5t-136 92t-92 136t-33.5 166.5q0 88 33.5 166t92 136t136 91.5t166.5 33.5q88 0 166 -33.5t136 -91.5t91.5 -136t33.5 -166zM777 328q0 81 -27.5 151.5t-75 123.5t-111 83.5t-135.5 30.5 v-778q72 0 135.5 30.5t111 83.5t75 123.5t27.5 151.5z" />
<glyph unicode="&#xe02a;" horiz-adv-x="855" d="M855 327q0 -89 -33.5 -166.5t-91.5 -135.5t-136 -91.5t-167 -33.5t-166.5 33.5t-135.5 91.5t-91.5 135.5t-33.5 166.5t33.5 167t91.5 136t135.5 91.5t166.5 33.5t167 -33.5t136 -91.5t91.5 -136t33.5 -167zM783 327q0 74 -28 139.5t-76 114t-113 76.5t-139 28t-139 -28 t-113 -76.5t-76 -114t-28 -139.5t28 -138.5t76 -112.5t113 -76t139 -28t139 28t113 76t76 112.5t28 138.5zM650 125l-175 127q-11 -6 -22.5 -10t-25.5 -4q-37 0 -63 26t-26 63q0 29 15.5 51.5t40.5 32.5v210h68v-211q24 -9 39.5 -31.5t15.5 -51.5q0 -5 -0.5 -9.5t-1.5 -9.5 l175 -127z" />
<glyph unicode="&#xe02b;" horiz-adv-x="850" d="M850 376q0 -88 -33.5 -165.5t-91 -135.5t-134.5 -91.5t-165 -33.5t-165.5 33.5t-135.5 91.5t-91.5 135.5t-33.5 165.5t33.5 165.5t91.5 134.5t135.5 90.5t165.5 33.5t165 -33.5t134.5 -90.5t91 -134.5t33.5 -165.5zM651 379l-222 222l-225 -222l225 -225z" />
<glyph unicode="&#xe02c;" horiz-adv-x="848" d="M190 369l191 126v85l-264 -183v-62l264 -178v87zM736 335v62l-264 183v-85l191 -126l-191 -125v-87zM850 376q0 -88 -33.5 -165.5t-91 -135.5t-134.5 -91.5t-165 -33.5t-165.5 33.5t-135.5 91.5t-91.5 135.5t-33.5 165.5t33.5 165.5t91.5 134.5t135.5 90.5t165.5 33.5 t165 -33.5t134.5 -90.5t91 -134.5t33.5 -165.5z" />
<glyph unicode="&#xe02d;" horiz-adv-x="1149" d="M687 166l462 323l-136 -409h-653l136 409zM714 301l-218 188h653zM460 476l-25 -52h-159l24 52h160zM419 363l-25 -54h-236l25 54h236zM24 231h359l-24 -54h-359z" />
<glyph unicode="&#xe02e;" horiz-adv-x="905" d="M580 600l-264 -600h-72l265 600h71zM905 600l-265 -600h-74l266 600h73zM94 439q0 29 19.5 48t48.5 19t49.5 -19t20.5 -48t-20.5 -49.5t-49.5 -20.5t-48.5 20.5t-19.5 49.5zM0 161q0 29 20.5 49.5t49.5 20.5t48.5 -20.5t19.5 -49.5t-19.5 -49.5t-48.5 -20.5t-49.5 20.5 t-20.5 49.5z" />
<glyph unicode="&#xe02f;" horiz-adv-x="875" d="M30 -33q63 11 118.5 39t101.5 68q-61 15 -112 53.5t-86 95.5q16 -10 43.5 -23.5t58 -26t59.5 -21t48 -9.5q-39 18 -83 52.5t-82 78.5t-64.5 93.5t-31.5 98.5q12 -30 45.5 -63t74.5 -62.5t82.5 -53.5t69.5 -37q-62 54 -101.5 105.5t-62.5 98t-32 87t-9.5 72.5t5 54.5 t12.5 33.5q20 -66 53.5 -121.5t78 -96t98.5 -65.5t116 -29l-6 28q-2 12 -3.5 24.5t-1.5 21.5q0 37 13.5 69.5t36.5 56.5t54 38t67 14t67.5 -14.5t54.5 -40.5l137 63l-88 -117h114l-114 -69q0 -7 -2 -34.5t-9.5 -68t-22 -90t-39.5 -100t-61.5 -98.5t-88.5 -85.5t-120.5 -60 t-156.5 -22.5q-127 0 -231 63z" />
<glyph unicode="&#xe030;" horiz-adv-x="946" d="M500 -181h-160v582h160v-582zM488 690v-30q12 -1 23 -1h35q13 0 22.5 7t17.5 24h121v-182h-120q-8 7 -16 20.5t-18 13.5h-37q-13 0 -28 1v-35h-151q-1 9 -6.5 19.5t-19.5 19.5t-38 15.5t-61 6.5q-36 0 -69 -6.5t-60.5 -15.5t-49 -19.5t-33.5 -19.5q24 33 55 64 q41 41 84.5 70.5t88.5 47.5h260zM756 303h56v280l-22 18l38 155h45l38 -155l-22 -18v-280h57v-484h-190v484z" />
<glyph unicode="&#xe031;" horiz-adv-x="866" d="M35 243v458h141v-458h-141zM354 349h141v-423h-141v423zM690 208h141v-282h-141v282zM690 419v282h141v-282h-141zM354 560v141h141v-141h-141zM319 500h212v-81h-212v81zM654 349h212v-81h-212v81zM0 172h211v-80h-211v80zM35 31h141v-105h-141v105z" />
<glyph unicode="&#xe032;" horiz-adv-x="943" d="M518 225l-391 -390l-127 127l390 391zM876 711q33 -33 50 -75t17 -86t-17 -85.5t-50 -74.5q-23 -23 -57 -33t-72 -17.5t-76.5 -15t-66.5 -20.5l-137 135q15 28 22 66.5t14.5 76.5t18 72.5t32.5 56.5q14 13 24 25v-174l125 -83l133 75v185q15 -6 23 -12.5t17 -15.5z" />
<glyph unicode="&#xe033;" horiz-adv-x="884" d="M88 51v115q0 22 -8.5 36t-22 22.5t-29 11.5t-28.5 3v81q13 0 29 3.5t29 11t21.5 20.5t8.5 32v114q0 59 24.5 95t61.5 55.5t83 25.5t89 6l-39 -96q-50 0 -68 -17.5t-18 -55.5v-127q0 -48 -28 -73.5t-69 -33.5v-2q41 -8 69 -35t28 -77v-128q0 -38 18.5 -55.5t67.5 -17.5 l39 -97q-43 0 -89 6.5t-83 26.5t-61.5 55.5t-24.5 94.5zM795 166v-115q0 -59 -24 -94.5t-61.5 -55.5t-83 -26.5t-88.5 -6.5l39 97q49 0 67 17.5t18 55.5v128q0 50 28.5 77t70.5 35q-1 0 -1 1l-1 1q-40 8 -68.5 34t-28.5 73v127q0 38 -17.5 55.5t-67.5 17.5l-39 96 q43 0 88.5 -6t83 -25.5t61.5 -55.5t24 -95v-114q0 -19 8.5 -32t22 -20.5t29.5 -11t29 -3.5v-81q-13 0 -28.5 -3t-29 -11.5t-22.5 -22.5t-9 -36z" />
<glyph unicode="&#xe034;" horiz-adv-x="966" d="M730 707q55 -35 98 -78.5t74 -96.5t47.5 -113.5t16.5 -126.5q0 -100 -38 -188t-103.5 -153.5t-153 -103.5t-187.5 -38q-54 0 -104.5 11t-93.5 32v438q0 48 34 81q33 33 80 33q48 0 81 -34q32 -35 32 -84q0 -54 -31 -85q-32 -32 -82 -32q-13 0 -24.5 2t-22.5 7t-23 13 t-20 19v-107q15 -5 21 -8.5t9 -4.5q2 -2 8 -4l14 -3q18 -6 44 -6q64 0 130 54q67 51 67 155q0 88 -58 147q-57 60 -144 60q-86 0 -146 -55q-29 -29 -45 -63t-16 -74v-398q-44 33 -79.5 75.5t-61 92t-39.5 105.5t-14 116q0 100 38 188t104 153.5t154 103.5t188 38 q42 0 80.5 -7t78.5 -21v-701h87v661z" />
<glyph unicode="&#xe035;" horiz-adv-x="3069" d="M922 95q-25 -55 -69.5 -109t-101.5 -93.5t-125 -61.5t-141 -22q-57 0 -105.5 12t-93.5 29v439q0 19 8 39.5t23 37.5t35.5 28t44.5 11q19 0 39.5 -8t37 -23t27 -36.5t10.5 -48.5q0 -33 -10 -55.5t-26 -36t-36.5 -19t-41.5 -5.5q-13 0 -21.5 -0.5t-17.5 2.5t-21 11t-33 24 v-106q10 -6 13.5 -7.5t8.5 -3.5t14.5 -5.5t31.5 -7.5h29q28 2 62 12t64 34.5t51 64.5t21 98q0 42 -12 80t-42 69q-32 23 -69 39t-75 16q-40 0 -77 -13t-65 -37.5t-45 -59.5t-17 -80v-397q-94 63 -145.5 164t-51.5 224q0 99 37 186.5t102 153t152.5 103.5t188.5 38 q42 0 84 -6.5t76 -16.5v-695h95v643q69 -38 121 -101.5t76 -138.5q-89 -81 -87 -194q1 -85 77 -171zM1526 80q-77 15 -99 48t-23 77v280h90v-248q0 -22 7 -36t18.5 -22t25.5 -11t29 -3q10 0 23 2.5t25 9.5t20 19t8 32v257h92v-423q0 -27 -13.5 -48.5t-37.5 -36t-56.5 -22.5 t-72 -8t-68.5 9v101q15 -22 48 -27q47 -3 73.5 7t34.5 43v15q-17 -11 -40.5 -16t-83.5 1zM1831 600h92v-520h-92v520zM2446 479q0 69 34 99.5t94 30.5h24v-84h-15q-19 2 -34.5 -11.5t-15.5 -53.5h50v-92h-50v-288h-87v399zM2773 249q-24 30 0 63h207q-27 73 -85.5 83 t-96.5 -10t-52.5 -64.5t-1.5 -82.5t42 -61.5t71 -25t87 44.5l70 -64q-50 -52 -90 -61t-72 -9t-73.5 15.5t-72.5 46.5t-49 73t-18 83t16.5 84.5t50.5 74t70 42.5t79.5 12t80 -13.5t71.5 -48.5t48.5 -72.5t13.5 -109.5h-296zM1139 65q-65 -3 -92 7t-44.5 23t-34.5 31t-32 44.5 t-19 40.5t-7 28.5t-3 30.5t2.5 36t12.5 48t28 52.5t37.5 40t41 25t44 15.5t47.5 6q47 0 87 -16.5t69 -44t45 -64.5t16 -79v-209h-93v209q0 24 -9 45t-25.5 37t-39.5 25t-50 9q-23 0 -44.5 -11t-38.5 -29t-27.5 -40.5t-10.5 -45.5q0 -21 8 -43t24.5 -40t41 -29.5t56.5 -11.5 q25 0 50 12t42 29v-106q-31 -17 -82 -25zM2136 80q-81 15 -99 50.5t-23 74.5v280h90v-248q0 -22 7 -36t18.5 -22t25.5 -11t29 -3q10 0 23 2.5t25 9.5t20 19t8 32v257h92v-423q0 -27 -13.5 -48.5t-37.5 -36t-56.5 -22.5t-72 -8t-68.5 9v101q6 -9 14 -13.5t34 -13.5 q49 0 74.5 8.5t33.5 41.5v15q-17 -11 -38 -13t-86 -2z" />
<glyph unicode="&#xe036;" horiz-adv-x="875" d="M125 60v500h625v-500h-625zM250 435v-250h375v250h-375zM62 622v-187h-62v250h250v-63h-188zM62 185v-187h188v-63h-250v250h62zM625 685h250v-250h-63v187h-187v63zM812 -2v187h63v-250h-250v63h187z" />
<glyph unicode="&#xe037;" horiz-adv-x="875" d="M125 623v125h62v-188h-187v63h125zM0 -3v63h187v-188h-62v125h-125zM750 623h125v-63h-187v188h62v-125zM688 -128v188h187v-63h-125v-125h-62zM188 122v376h500v-376h-500zM312 372v-124h250v124h-250z" />
<glyph unicode="&#xe038;" horiz-adv-x="989" d="M391 -98l47 -76h-438v937h889v-313l-73 -95v278h-742v-731h317zM889 19v-193h-175zM989 247l-387 -429l-260 214l88 86l172 -128l301 344zM731 439h-582v87h582v-87zM731 261h-582v87h582v-87zM149 175h208v-86h-208v86z" />
<glyph unicode="&#xe039;" horiz-adv-x="944" d="M367 20h-168v324h168v-324zM640 20h-169v651h169v-651zM912 20h-169v324h169v-324zM944 -51v-53h-823v-68h-53v68h-68v53h68v147h-68v54h68v157h-68v54h68v157h-68v54h68v147h-68v53h121v-823h823z" />
<glyph unicode="&#xe03a;" d="M410 725v-147l-166 -161v-281h-244v439l150 150h260zM211 516v198l-198 -198h198zM452 513h297v-588h-445v439zM513 293v198l-198 -198h198z" />
<glyph unicode="&#xe03b;" horiz-adv-x="961" d="M866 168q-19 -59 -58 -109t-91.5 -86t-114.5 -56.5t-127 -20.5q-72 0 -136 25t-114.5 68.5t-85 103t-46.5 128.5h-93l171 243l157 -243h-94q10 -40 33 -74.5t55 -59.5t71 -39t82 -14q73 0 132 37t91 97h168zM96 502q19 58 58 107.5t91.5 85.5t114 56.5t126.5 20.5 q72 0 136.5 -24.5t115 -68t84.5 -102.5t46 -128h93l-170 -239l-158 239h95q-11 40 -33.5 74t-54.5 59t-71.5 39t-82.5 14q-72 0 -130.5 -36.5t-91.5 -96.5h-168z" />
<glyph unicode="&#xe03c;" horiz-adv-x="884" d="M850 429l-553 -554l-297 297l554 553l197 34l133 -133zM609 484q12 -13 27 -19.5t31 -6.5t31 6.5t27 19.5q13 12 19 27t6 31t-6 31t-19 27q-12 13 -27 19t-31 6t-31 -6t-27 -19q-13 -12 -19.5 -27t-6.5 -31t6.5 -31t19.5 -27z" />
<glyph unicode="&#xe03d;" horiz-adv-x="613" d="M307 522l-307 -311v190l307 312l306 -312v-190zM0 -151v190l307 312l306 -312v-190l-306 311z" />
<glyph unicode="&#xe03e;" d="M728 594q21 -84 21 -181q0 -110 -29 -207t-79 -171.5t-118.5 -121t-147.5 -55.5q-77 9 -145.5 55.5t-119.5 121t-80.5 171.5t-29.5 207q0 48 6 93.5t16 87.5q12 -1 23 -2t24 -1q91 0 170 41t136 113q57 -72 135.5 -113t170.5 -41q12 0 23.5 1t23.5 2zM650 363l-190 29 l-85 172l-86 -172l-192 -29l140 -135l-32 -190l170 91l170 -91l-32 190z" />
<glyph unicode="&#xe03f;" horiz-adv-x="850" d="M850 376q0 -88 -33.5 -165.5t-91 -135.5t-134.5 -91.5t-165 -33.5t-165.5 33.5t-135.5 91.5t-91.5 135.5t-33.5 165.5t33.5 165.5t91.5 134.5t135.5 90.5t165.5 33.5t165 -33.5t134.5 -90.5t91 -134.5t33.5 -165.5zM397 382h-78v92h-66v-92h-78v-63h78v-94h66v94h78v63z M610 604h-69q-6 -13 -18 -24.5t-27.5 -21t-33 -16t-34.5 -9.5l8 -65q22 1 44 5t38 12v-365h92v484z" />
<glyph unicode="&#xe040;" horiz-adv-x="922" d="M288 305q0 36 13.5 67.5t37 55t55 37t67.5 13.5t67.5 -13.5t55 -37t37 -55t13.5 -67.5t-13.5 -67.5t-37 -55t-55 -37t-67.5 -13.5t-67.5 13.5t-55 37t-37 55t-13.5 67.5zM345 675q0 24 9 44.5t25 36.5t37 25t45 9t45.5 -9t37 -25t25 -36.5t9.5 -44.5t-9.5 -45.5 t-25 -37.5t-37 -25t-45.5 -9t-45 9t-37 25t-25 37.5t-9 45.5zM576 -52q3 -24 -4 -46t-21 -39.5t-34 -28.5t-44 -13q-24 -3 -46 4t-39.5 21t-28.5 34t-13 44q-3 24 4 46t21 39t34 28.5t44 13.5q24 3 46 -4t39 -21t28.5 -34t13.5 -44zM734 609q20 12 43 15.5t44.5 -1.5 t40.5 -18t32 -33q13 -21 16.5 -43.5t-2 -44.5t-18.5 -40.5t-33 -31.5t-43 -16.5t-44.5 1.5t-40.5 18t-32 33q-13 21 -16.5 44t2 44.5t18.5 40.5t33 32zM846 239q22 -11 37 -28.5t22.5 -38.5t6 -44t-11.5 -44q-11 -21 -28.5 -36t-38.5 -22.5t-44 -6.5t-44 11q-22 11 -37 28.5 t-22 38.5t-6 44t12 45q10 21 27.5 36t38.5 22.5t44 6.5t44 -12zM198 44q-19 -15 -41.5 -21t-44.5 -3t-42 14t-35 30t-21 41.5t-3 44.5t14 42t30 35q19 14 41.5 20t44.5 3t42 -13.5t35 -29.5t20.5 -41.5t3 -45t-13.5 -42.5t-30 -34zM86 401q-23 8 -39.5 24t-26 36t-10.5 43 t7 46q9 22 24.5 39t36 26.5t43 10.5t45.5 -7t40 -24t26.5 -36t10.5 -43t-7 -45q-8 -23 -24 -39.5t-36.5 -26t-43.5 -11t-46 6.5z" />
<glyph unicode="&#xe041;" horiz-adv-x="962" d="M962 263h-112q-7 -66 -35 -123.5t-72 -101.5t-101.5 -72t-123.5 -35v-112h-74v112q-66 7 -123.5 35t-101.5 72t-72 101.5t-35 123.5h-112v74h112q7 66 35 123.5t72 101.5t101.5 72t123.5 35v112h74v-112q66 -7 123.5 -35t101.5 -72t72 -101.5t35 -123.5h112v-74zM518 -5 q53 6 99 29t81.5 58.5t58.5 81.5t29 99h-46v74h46q-6 53 -29 99t-58.5 82t-81.5 59t-99 29v-47h-74v47q-53 -6 -99 -29t-82 -59t-59 -82t-29 -99h83v-74h-83q6 -53 29 -99t59 -81.5t82 -58.5t99 -29v46h74v-46zM481 411q23 0 43 -9t35 -24t24 -35t9 -43t-9 -43t-24 -35 t-35 -24t-43 -9t-43 9t-35 24t-24 35t-9 43t9 43t24 35t35 24t43 9z" />
<glyph unicode="&#xe042;" horiz-adv-x="634" d="M634 318q0 -66 -25 -123.5t-68 -101t-100 -68.5t-123 -25t-123.5 25t-101 68.5t-68.5 101t-25 123.5t25 123.5t68.5 100t101 67.5t123.5 25t123 -25t100 -67.5t68 -100t25 -123.5zM508 369h-139v139h-104v-139h-139v-104h139v-139h104v139h139v104z" />
<glyph unicode="&#xe043;" horiz-adv-x="634" d="M634 318q0 -66 -25 -123.5t-68 -101t-100 -68.5t-123 -25t-123.5 25t-101 68.5t-68.5 101t-25 123.5t25 123.5t68.5 100t101 67.5t123.5 25t123 -25t100 -67.5t68 -100t25 -123.5zM508 369h-382v-104h382v104z" />
<glyph unicode="&#xe044;" horiz-adv-x="643" d="M323 643q66 0 124.5 -25.5t101.5 -68.5t68.5 -101.5t25.5 -124.5t-25.5 -125.5t-68.5 -103t-101.5 -69t-124.5 -25.5t-125.5 25.5t-103 69t-69 103t-25.5 125.5t25.5 124.5t69 101.5t103 68.5t125.5 25.5zM512 182q16 22 27 48q19 44 19 93q0 48 -18.5 90.5t-50.5 75 t-74.5 51t-91.5 18.5t-93 -19q-26 -11 -48 -27l-52 -52q-16 -21 -27 -47q-18 -42 -18 -90q0 -49 18.5 -92.5t51 -76t76 -51t92.5 -18.5t91 18q25 11 46 26zM489 154q13 13 23 28l-330 330q-15 -11 -28 -24t-24 -28l330 -331q16 12 29 25z" />
</font>
</defs>
</svg>
